<?xml version="1.0" encoding="utf-8"?>
<!-- Generator: Adobe Illustrator 24.0.0, SVG Export Plug-In . SVG Version: 6.00 Build 0)  -->
<svg version="1.1" id="Layer_1" xmlns="http://www.w3.org/2000/svg" xmlns:xlink="http://www.w3.org/1999/xlink" x="0px" y="0px"
	 viewBox="0 0 60 60" style="enable-background:new 0 0 60 60;" xml:space="preserve">
<style type="text/css">
	.st0{fill:#333333;}
</style>
<g>
	<path class="st0" d="M41.69,6.46c0.03-0.21,0.09-0.47,0.17-0.89l-2.39,4.15l-0.81-0.47l2.83-4.92l1.24,0.71L42.18,8.8l2.92-2.39
		l1.25,0.72l-2.83,4.92l-0.83-0.47l2.39-4.15c-0.34,0.35-0.5,0.47-0.66,0.61l-2.52,2l-0.7-0.4L41.69,6.46z"/>
	<path class="st0" d="M50.53,10.91l-0.57,0.61L48.02,9.7l-1.04,1.11l1.81,1.7l-0.56,0.6l-1.81-1.7l-1.14,1.21l1.97,1.85l-0.57,0.61
		l-2.7-2.54l3.88-4.14L50.53,10.91z"/>
	<path class="st0" d="M51.69,12.21l0.66,0.95l-1.71,3.55c-0.11,0.22-0.27,0.53-0.53,0.81l3.56-2.48l0.54,0.77l-4.65,3.25l-0.66-0.95
		l1.71-3.57c0.13-0.26,0.29-0.55,0.51-0.79l-3.54,2.47l-0.54-0.77L51.69,12.21z"/>
	<path class="st0" d="M53.25,21.8l3.11-1.27l0.38,0.93l-3.09,1.26c-1.72,0.7-2.54,0.19-3.08-1.13c-0.54-1.31-0.31-2.26,1.41-2.96
		l3.09-1.26l0.38,0.93l-3.11,1.27c-1.04,0.42-1.25,0.91-0.93,1.67C51.72,22.03,52.21,22.23,53.25,21.8z"/>
	<path class="st0" d="M55.66,31.74l-0.94,0.02c-1.79,0.04-2.48-1.03-2.52-2.34s0.61-2.42,2.4-2.46l0.94-0.02
		c1.76-0.04,2.48,1.06,2.52,2.34C58.08,30.57,57.41,31.7,55.66,31.74z M54.82,30.75l0.69-0.02c1.31-0.03,1.65-0.66,1.63-1.43
		c-0.02-0.76-0.39-1.38-1.7-1.34l-0.68,0.02c-1.31,0.03-1.65,0.67-1.63,1.43C53.14,30.18,53.51,30.78,54.82,30.75z"/>
	<path class="st0" d="M57.83,33.34l-0.39,2.1c-0.25,1.34-1.04,1.78-1.95,1.61l-0.16-0.03c-0.91-0.17-1.56-0.93-1.32-2.23l0.21-1.11
		l-2.14-0.4l0.19-0.99L57.83,33.34z M56.82,34.18l-1.77-0.33l-0.18,0.98c-0.12,0.65,0.01,1.08,0.66,1.21l0.14,0.03
		c0.61,0.11,0.85-0.25,0.95-0.81L56.82,34.18z"/>
	<path class="st0" d="M55.27,42.14l-0.78-0.31l0.99-2.46l-1.42-0.57l-0.93,2.31l-0.76-0.3l0.93-2.31l-1.54-0.62l-1.01,2.51
		l-0.78-0.31l1.38-3.44l5.27,2.11L55.27,42.14z"/>
	<path class="st0" d="M54.5,43.67l-0.64,0.96l-3.93-0.3c-0.24-0.02-0.59-0.06-0.95-0.2l3.61,2.4l-0.52,0.79l-4.72-3.15l0.64-0.96
		l3.94,0.29c0.29,0.02,0.62,0.07,0.92,0.19l-3.59-2.4l0.52-0.79L54.5,43.67z"/>
	<path class="st0" d="M44.37,53.47l-0.02-0.94c0.61,0.04,1-0.15,1.42-0.45c0.55-0.4,0.9-1.07,0.07-2.21L45.5,49.4
		c-0.71-0.97-1.49-0.96-2.06-0.54c-0.43,0.31-0.82,0.76-0.91,1.4l-0.89-0.31c0.16-0.93,0.77-1.5,1.28-1.87
		c1-0.73,2.29-0.81,3.28,0.56l0.6,0.82c1,1.37,0.59,2.6-0.47,3.38C45.67,53.3,45.11,53.51,44.37,53.47z"/>
	<path class="st0" d="M42.4,55.09l-2.06-4.37L38,51.82l-0.36-0.77l3.26-1.53l2.42,5.14L42.4,55.09z"/>
	<path class="st0" d="M33.93,55.42l-0.23-0.91c-0.44-1.74,0.46-2.65,1.73-2.97s2.5,0.06,2.93,1.8l0.23,0.91
		c0.43,1.7-0.49,2.66-1.73,2.97C35.61,57.53,34.36,57.13,33.93,55.42z M34.72,54.38l0.17,0.67c0.32,1.27,1,1.46,1.75,1.28
		c0.73-0.18,1.26-0.68,0.94-1.95l-0.17-0.67c-0.32-1.27-1.02-1.46-1.75-1.27C34.91,52.62,34.4,53.12,34.72,54.38z"/>
	<path class="st0" d="M29.84,53.82l0,0.09c0.02,0.46,0.38,0.64,1.03,0.76c0.95,0.17,2.02,0.3,2.07,1.61l0,0.1
		c0.03,0.69-0.44,1.62-1.97,1.67c-0.62,0.02-1.2-0.06-1.79-0.41l0.44-0.8c0.47,0.28,0.84,0.32,1.3,0.31
		c0.72-0.03,1.03-0.42,1.02-0.72l0-0.09c-0.02-0.55-0.58-0.61-1.26-0.73c-1.35-0.25-1.82-0.78-1.85-1.56l0-0.1
		c-0.05-1.27,0.92-1.7,2.03-1.74c0.82-0.03,1.6,0.23,2.06,0.58l-0.46,0.82c-0.36-0.28-0.93-0.52-1.61-0.49
		C30.13,53.13,29.83,53.43,29.84,53.82z"/>
	<path class="st0" d="M23.82,57.35l0.13-0.83l2.62,0.41l0.23-1.51l-2.46-0.38l0.13-0.81l2.46,0.38l0.25-1.64l-2.68-0.42l0.13-0.83
		l3.67,0.57l-0.87,5.61L23.82,57.35z"/>
	<path class="st0" d="M18.17,53.47c-0.03,0.21-0.09,0.47-0.18,0.89l2.42-4.14l0.81,0.47l-2.86,4.91l-1.24-0.72l0.57-3.75l-2.93,2.37
		l-1.25-0.73l2.86-4.91l0.82,0.48l-2.42,4.14c0.34-0.35,0.5-0.47,0.66-0.61l2.54-1.99l0.69,0.4L18.17,53.47z"/>
	<path class="st0" d="M9.35,48.97l0.58-0.61l1.92,1.83l1.05-1.11l-1.8-1.72l0.56-0.59l1.8,1.72l1.15-1.2l-1.96-1.87l0.58-0.6
		l2.69,2.56L12,51.49L9.35,48.97z"/>
	<path class="st0" d="M8.2,47.67l-0.66-0.95l1.73-3.55c0.11-0.22,0.28-0.53,0.53-0.81l-3.57,2.46L5.7,44.04l4.68-3.22l0.66,0.95
		L9.3,45.33C9.17,45.59,9,45.88,8.78,46.12l3.56-2.46l0.54,0.78L8.2,47.67z"/>
	<path class="st0" d="M6.68,38.03l-3.11,1.25L3.2,38.34l3.1-1.24c1.73-0.69,2.54-0.18,3.07,1.14c0.53,1.32,0.29,2.26-1.43,2.95
		l-3.1,1.24L4.46,41.5l3.11-1.25c1.04-0.42,1.25-0.9,0.94-1.67C8.21,37.81,7.72,37.61,6.68,38.03z"/>
	<path class="st0" d="M4.35,28.09l0.94-0.02c1.79-0.03,2.48,1.05,2.5,2.35c0.03,1.31-0.62,2.41-2.41,2.45L4.45,32.9
		c-1.76,0.03-2.48-1.07-2.5-2.35C1.92,29.25,2.6,28.13,4.35,28.09z M5.19,29.09L4.5,29.11c-1.31,0.03-1.65,0.65-1.63,1.42
		c0.01,0.76,0.38,1.38,1.69,1.35l0.69-0.01c1.31-0.03,1.65-0.66,1.63-1.42C6.86,29.68,6.49,29.07,5.19,29.09z"/>
	<path class="st0" d="M2.18,26.45l0.41-2.1c0.26-1.34,1.05-1.78,1.97-1.6l0.16,0.03c0.91,0.18,1.56,0.95,1.31,2.24l-0.22,1.11
		l2.14,0.42l-0.19,0.99L2.18,26.45z M3.2,25.62l1.77,0.35l0.19-0.98c0.13-0.65-0.01-1.09-0.65-1.21l-0.14-0.03
		c-0.61-0.12-0.85,0.24-0.96,0.81L3.2,25.62z"/>
	<path class="st0" d="M4.79,17.71l0.77,0.31l-1,2.46l1.42,0.57l0.94-2.3l0.76,0.31l-0.94,2.3l1.54,0.62l1.02-2.51l0.77,0.31
		l-1.39,3.44L3.42,21.1L4.79,17.71z"/>
	<path class="st0" d="M5.57,16.18l0.65-0.96l3.94,0.32c0.24,0.02,0.59,0.07,0.95,0.2l-3.6-2.43l0.53-0.78l4.71,3.18l-0.65,0.96
		l-3.95-0.32c-0.29-0.02-0.62-0.07-0.92-0.2l3.59,2.42l-0.53,0.78L5.57,16.18z"/>
	<path class="st0" d="M15.77,6.44l0.01,0.94c-0.61-0.05-1,0.14-1.42,0.44c-0.55,0.4-0.9,1.06-0.08,2.21l0.34,0.47
		c0.7,0.98,1.48,0.97,2.06,0.56c0.43-0.31,0.83-0.75,0.92-1.39l0.88,0.31c-0.16,0.93-0.78,1.49-1.29,1.86
		c-1,0.72-2.29,0.79-3.28-0.58l-0.59-0.82c-0.99-1.38-0.57-2.6,0.5-3.37C14.47,6.6,15.04,6.4,15.77,6.44z"/>
	<path class="st0" d="M17.75,4.84l2.03,4.38l2.35-1.09l0.36,0.77l-3.26,1.51l-2.39-5.15L17.75,4.84z"/>
	<path class="st0" d="M26.24,4.56l0.22,0.91c0.42,1.74-0.48,2.64-1.75,2.95s-2.49-0.08-2.91-1.82L21.58,5.7
		c-0.42-1.71,0.5-2.65,1.75-2.95C24.58,2.44,25.83,2.86,26.24,4.56z M25.45,5.59l-0.16-0.67c-0.31-1.27-0.99-1.47-1.74-1.29
		c-0.73,0.18-1.26,0.67-0.95,1.94l0.16,0.67c0.31,1.27,1,1.46,1.74,1.29C25.25,7.35,25.76,6.86,25.45,5.59z"/>
	<path class="st0" d="M30.31,6.18l0-0.09c-0.01-0.46-0.37-0.64-1.02-0.76c-0.95-0.18-2.02-0.31-2.06-1.62l0-0.1
		C27.2,2.92,27.67,2,29.2,1.95c0.62-0.02,1.2,0.07,1.79,0.42l-0.45,0.79c-0.47-0.29-0.84-0.33-1.29-0.31
		c-0.72,0.02-1.04,0.41-1.03,0.72l0,0.09c0.02,0.55,0.58,0.61,1.25,0.74c1.35,0.26,1.81,0.79,1.84,1.57l0,0.1
		c0.04,1.27-0.93,1.69-2.03,1.73c-0.82,0.03-1.6-0.24-2.05-0.59l0.46-0.82c0.36,0.28,0.93,0.52,1.61,0.5
		C30.02,6.87,30.32,6.57,30.31,6.18z"/>
	<path class="st0" d="M36.35,2.68L36.22,3.5l-2.62-0.42l-0.24,1.51l2.46,0.4L35.68,5.8l-2.46-0.4l-0.26,1.64l2.68,0.43L35.5,8.3
		l-3.67-0.59l0.9-5.61L36.35,2.68z"/>
</g>
</svg>
